<svg width="93" height="35" viewBox="0 0 93 35" fill="none" xmlns="http://www.w3.org/2000/svg">
<path d="M45.1016 16.8828H43.767V13.8494H44.9803C46.4536 13.8494 47.1817 14.3521 47.1817 15.3748C47.1643 16.3801 46.471 16.8828 45.1016 16.8828ZM48.8283 11.8907C48.0483 11.2494 46.7137 10.9201 44.8416 10.9201H40.5776V23.9028H43.7496V19.8295H45.171C46.9043 19.8295 48.1697 19.4481 48.967 18.7028C49.8683 17.8535 50.3363 16.7441 50.3363 15.3401C50.3363 13.8841 49.8337 12.7228 48.8283 11.8907ZM55.779 10.9201H52.4684V23.9028H59.6097V20.9561H55.779V10.9201ZM66.0578 19.3788L67.4271 14.9414L68.7618 19.3788H66.0578ZM66.0925 10.9201L60.8924 23.9028H64.4631L65.1391 22.0135H69.6631L70.2871 23.9028H73.8925L68.7271 10.9201H66.0925ZM75.5392 23.9028H78.8499V10.9201H75.5392V23.9028ZM86.4073 20.9561H84.9859V13.8494H86.4246C87.4299 13.8494 88.2099 14.1614 88.7646 14.7854C89.3019 15.4094 89.5793 16.2934 89.5793 17.4548C89.5793 19.7948 88.5219 20.9561 86.4073 20.9561ZM91.694 13.3468C91.2606 12.7228 90.7233 12.2201 90.1166 11.8387C89.1113 11.2147 87.7593 10.9027 86.0259 10.9027H81.6579V23.8855H86.7539C88.5913 23.8855 90.0819 23.2962 91.1913 22.1002C92.3006 20.9041 92.8726 19.3268 92.8726 17.3508C92.89 15.7908 92.4913 14.4561 91.694 13.3468ZM31.9109 31.9109L34.6842 21.0948L30.9402 17.3508L34.6842 13.5894L31.9109 2.77335L21.0948 0L17.3508 3.76136L13.5894 0.0173332L2.77335 2.79069L0 13.6068L3.76136 17.3508L0 21.1121L2.77335 31.9282L13.5894 34.7016L17.3508 30.9402L21.0948 34.6842L31.9109 31.9109ZM19.4828 28.7735L23.0535 25.2028L27.5949 29.7442L21.9095 31.2002L19.4828 28.7735ZM13.7628 11.6134L17.3335 8.04272L20.9041 11.6134L17.3335 15.1841L13.7628 11.6134ZM15.2014 17.3335L11.6307 20.9041L8.06005 17.3335L11.6307 13.7628L15.2014 17.3335ZM23.0535 13.7628L26.6242 17.3335L23.0535 20.9041L19.4828 17.3335L23.0535 13.7628ZM20.9215 23.0535L17.3508 26.6242L13.7801 23.0535L17.3508 19.4828L20.9215 23.0535ZM12.7574 31.2002L7.07205 29.7442L11.6134 25.2028L15.1841 28.7735L12.7574 31.2002ZM5.91071 19.4828L9.4814 23.0535L4.94003 27.5949L3.48402 21.9095L5.91071 19.4828ZM4.9227 7.07205L9.46406 11.6134L5.91071 15.2014L3.48402 12.7748L4.9227 7.07205ZM15.2014 5.91071L11.6307 9.4814L7.08938 4.94003L12.7748 3.48402L15.2014 5.91071ZM21.9095 3.46669L27.5949 4.9227L23.0535 9.46406L19.4828 5.91071L21.9095 3.46669ZM28.7735 15.2014L25.2028 11.6307L29.7442 7.08938L31.2002 12.7748L28.7735 15.2014ZM29.7442 27.6122L25.2028 23.0708L28.7735 19.5001L31.2002 21.9268L29.7442 27.6122Z" fill="#111111"/>
</svg>
