<svg width="65" height="28" viewBox="0 0 65 28" fill="none" xmlns="http://www.w3.org/2000/svg">
<path fill-rule="evenodd" clip-rule="evenodd" d="M64.6096 14.0873C64.6096 9.49287 62.3842 5.86755 58.1307 5.86755C53.8593 5.86755 51.2749 9.49287 51.2749 14.0514C51.2749 19.4535 54.3259 22.1815 58.705 22.1815C60.8407 22.1815 62.456 21.6969 63.6764 21.0149V17.4255C62.456 18.0357 61.0561 18.4126 59.2793 18.4126C57.5384 18.4126 55.995 17.8024 55.7976 15.6846H64.5737C64.5737 15.4513 64.6096 14.5181 64.6096 14.0873ZM55.7437 12.3824C55.7437 10.3543 56.9821 9.51082 58.1128 9.51082C59.2075 9.51082 60.3741 10.3543 60.3741 12.3824H55.7437Z" fill="#6772E5"/>
<path fill-rule="evenodd" clip-rule="evenodd" d="M44.3473 5.86755C42.5884 5.86755 41.4578 6.69312 40.8296 7.26743L40.5963 6.15471H36.6479V27.081L41.1347 26.1299L41.1527 21.0508C41.7988 21.5174 42.75 22.1815 44.3293 22.1815C47.5418 22.1815 50.4672 19.5971 50.4672 13.9079C50.4493 8.7032 47.488 5.86755 44.3473 5.86755ZM43.2704 18.2331C42.2116 18.2331 41.5834 17.8562 41.1527 17.3896L41.1347 10.7312C41.6014 10.2108 42.2474 9.85181 43.2704 9.85181C44.9036 9.85181 46.0343 11.6824 46.0343 14.0335C46.0343 16.4384 44.9216 18.2331 43.2704 18.2331Z" fill="#6772E5"/>
<path fill-rule="evenodd" clip-rule="evenodd" d="M30.4744 4.8087L34.9791 3.83955V0.196289L30.4744 1.14749V4.8087Z" fill="#6772E5"/>
<path d="M34.9791 6.17261H30.4744V21.8763H34.9791V6.17261Z" fill="#6772E5"/>
<path fill-rule="evenodd" clip-rule="evenodd" d="M25.6466 7.50078L25.3595 6.17269H21.4829V21.8764H25.9697V11.2338C27.0286 9.85185 28.8233 10.1031 29.3796 10.3005V6.17269C28.8053 5.95733 26.7055 5.56249 25.6466 7.50078Z" fill="#6772E5"/>
<path fill-rule="evenodd" clip-rule="evenodd" d="M16.6729 2.2782L12.2938 3.21145L12.2759 17.5871C12.2759 20.2433 14.268 22.1995 16.9242 22.1995C18.3958 22.1995 19.4727 21.9303 20.0649 21.6072V17.964C19.4906 18.1973 16.655 19.0229 16.655 16.3667V9.99546H20.0649V6.17272H16.655L16.6729 2.2782Z" fill="#6772E5"/>
<path fill-rule="evenodd" clip-rule="evenodd" d="M4.54062 10.7312C4.54062 10.0313 5.11493 9.76208 6.06613 9.76208C7.43011 9.76208 9.15303 10.1749 10.517 10.9107V6.69312C9.0274 6.10087 7.55574 5.86755 6.06613 5.86755C2.42286 5.86755 0 7.76995 0 10.9466C0 15.9 6.81991 15.1103 6.81991 17.246C6.81991 18.0716 6.10202 18.3408 5.09698 18.3408C3.60737 18.3408 1.70498 17.7306 0.197418 16.905V21.1764C1.8665 21.8943 3.55353 22.1994 5.09698 22.1994C8.82998 22.1994 11.3964 20.3509 11.3964 17.1383C11.3785 11.7901 4.54062 12.7413 4.54062 10.7312Z" fill="#6772E5"/>
</svg>
