<svg width="112" height="27" viewBox="0 0 112 27" fill="none" xmlns="http://www.w3.org/2000/svg">
<path d="M37.738 18.776H38.998V8.66H37.738V7.436H42.868L47.962 16.274H48.07V8.66H46.81V7.436H50.806V8.66H49.546V20H46.72L40.582 9.578H40.474V18.776H41.734V20H37.738V18.776ZM56.1292 20.216C55.5412 20.216 55.0432 20.144 54.6352 20C54.2272 19.856 53.8972 19.64 53.6452 19.352C53.3932 19.052 53.2072 18.686 53.0872 18.254C52.9792 17.81 52.9252 17.3 52.9252 16.724V12.44L51.8452 12.206V11.126L55.8412 10.334V16.634C55.8412 17.246 55.9492 17.684 56.1652 17.948C56.3812 18.2 56.7412 18.326 57.2452 18.326C57.4492 18.326 57.6532 18.302 57.8572 18.254C58.0612 18.194 58.2412 18.11 58.3972 18.002C58.5532 17.894 58.6792 17.756 58.7752 17.588C58.8712 17.408 58.9192 17.198 58.9192 16.958V12.44L57.8392 12.206V11.126L61.8352 10.334V18.11L62.9152 18.344V19.424L58.9732 20.216V18.416H58.8652C58.6972 18.908 58.3912 19.334 57.9472 19.694C57.5152 20.042 56.9092 20.216 56.1292 20.216ZM64.0683 18.776H65.1483V12.44L64.0683 12.206V11.126L68.0103 10.334V12.134H68.1183C68.2023 11.894 68.3163 11.666 68.4603 11.45C68.6043 11.222 68.7843 11.03 69.0003 10.874C69.2163 10.706 69.4683 10.574 69.7563 10.478C70.0563 10.382 70.3983 10.334 70.7823 10.334C71.5983 10.334 72.2403 10.484 72.7083 10.784C73.1763 11.084 73.5003 11.528 73.6803 12.116H73.7523C73.9563 11.636 74.2863 11.222 74.7423 10.874C75.2103 10.514 75.8343 10.334 76.6143 10.334C77.7543 10.334 78.5583 10.622 79.0263 11.198C79.4943 11.774 79.7283 12.644 79.7283 13.808V18.776H80.8083V20H75.8943V18.776H76.8123V13.916C76.8123 13.304 76.7103 12.872 76.5063 12.62C76.3023 12.356 75.9663 12.224 75.4983 12.224C75.0783 12.224 74.7063 12.338 74.3823 12.566C74.0583 12.782 73.8963 13.124 73.8963 13.592V18.776H74.8143V20H70.0623V18.776H70.9803V13.916C70.9803 13.304 70.8783 12.872 70.6743 12.62C70.4703 12.356 70.1343 12.224 69.6663 12.224C69.2463 12.224 68.8743 12.338 68.5503 12.566C68.2263 12.782 68.0643 13.124 68.0643 13.592V18.776H68.9823V20H64.0683V18.776ZM86.7153 20.216C85.9593 20.216 85.2813 20.096 84.6813 19.856C84.0933 19.604 83.5953 19.256 83.1873 18.812C82.7913 18.368 82.4853 17.846 82.2693 17.246C82.0653 16.646 81.9633 15.986 81.9633 15.266C81.9633 14.498 82.0713 13.808 82.2873 13.196C82.5033 12.584 82.8093 12.068 83.2053 11.648C83.6133 11.228 84.0993 10.904 84.6633 10.676C85.2273 10.448 85.8573 10.334 86.5533 10.334C87.2373 10.334 87.8553 10.436 88.4073 10.64C88.9713 10.844 89.4453 11.138 89.8293 11.522C90.2133 11.894 90.5073 12.35 90.7113 12.89C90.9273 13.418 91.0353 14.018 91.0353 14.69V15.32H85.0413V16.076C85.0413 16.856 85.2513 17.444 85.6713 17.84C86.0913 18.224 86.6493 18.416 87.3453 18.416C87.9933 18.416 88.5153 18.272 88.9113 17.984C89.3193 17.684 89.6073 17.33 89.7753 16.922L90.8193 17.534C90.7113 17.822 90.5493 18.128 90.3333 18.452C90.1293 18.764 89.8593 19.052 89.5233 19.316C89.1993 19.58 88.8033 19.796 88.3353 19.964C87.8673 20.132 87.3273 20.216 86.7153 20.216ZM85.0413 14.15H88.0473V13.898C88.0473 13.046 87.9093 12.452 87.6333 12.116C87.3693 11.78 87.0153 11.612 86.5713 11.612C86.1153 11.612 85.7433 11.78 85.4553 12.116C85.1793 12.44 85.0413 13.034 85.0413 13.898V14.15ZM92.3867 18.776H93.4667V12.44L92.3867 12.206V11.126L96.3287 10.334V12.098H96.4007C96.5687 11.594 96.8447 11.174 97.2287 10.838C97.6127 10.502 98.1107 10.334 98.7227 10.334C99.3347 10.334 99.8087 10.496 100.145 10.82C100.481 11.144 100.649 11.582 100.649 12.134C100.649 12.638 100.517 13.028 100.253 13.304C100.001 13.58 99.6287 13.718 99.1367 13.718C98.6807 13.718 98.3327 13.604 98.0927 13.376C97.8647 13.136 97.7507 12.848 97.7507 12.512C97.7507 12.38 97.7807 12.26 97.8407 12.152C97.9007 12.032 97.9727 11.954 98.0567 11.918L98.0207 11.81C97.9967 11.798 97.9547 11.792 97.8947 11.792C97.7147 11.792 97.5347 11.846 97.3547 11.954C97.1747 12.062 97.0127 12.2 96.8687 12.368C96.7247 12.536 96.6047 12.722 96.5087 12.926C96.4247 13.118 96.3827 13.31 96.3827 13.502V18.776H97.8227V20H92.3867V18.776ZM106.225 18.884C106.741 18.884 107.137 18.728 107.413 18.416C107.689 18.104 107.827 17.63 107.827 16.994V13.556C107.827 12.92 107.689 12.446 107.413 12.134C107.137 11.822 106.741 11.666 106.225 11.666C105.709 11.666 105.313 11.822 105.037 12.134C104.761 12.446 104.623 12.92 104.623 13.556V16.994C104.623 17.63 104.761 18.104 105.037 18.416C105.313 18.728 105.709 18.884 106.225 18.884ZM106.225 20.216C105.517 20.216 104.875 20.108 104.299 19.892C103.735 19.664 103.243 19.34 102.823 18.92C102.415 18.5 102.097 17.984 101.869 17.372C101.653 16.76 101.545 16.064 101.545 15.284C101.545 14.492 101.653 13.79 101.869 13.178C102.097 12.566 102.415 12.05 102.823 11.63C103.243 11.21 103.735 10.892 104.299 10.676C104.875 10.448 105.517 10.334 106.225 10.334C106.921 10.334 107.557 10.448 108.133 10.676C108.709 10.892 109.201 11.21 109.609 11.63C110.029 12.05 110.347 12.566 110.563 13.178C110.791 13.79 110.905 14.486 110.905 15.266C110.905 16.058 110.791 16.76 110.563 17.372C110.347 17.984 110.029 18.5 109.609 18.92C109.201 19.34 108.709 19.664 108.133 19.892C107.557 20.108 106.921 20.216 106.225 20.216Z" fill="#EA472C"/>
<line x1="2.5" x2="2.5" y2="27" stroke="#F2C617"/>
<line x1="7.5" x2="7.5" y2="27" stroke="#F2C617"/>
<line x1="12.5" x2="12.5" y2="27" stroke="#F2C617"/>
<line x1="17.5" x2="17.5" y2="27" stroke="#F2C617"/>
<line x1="22.5" x2="22.5" y2="27" stroke="#F2C617"/>
<line x1="-2.18557e-08" y1="22.5" x2="29" y2="22.5" stroke="#F2C617"/>
<line x1="-2.18557e-08" y1="17.5" x2="29" y2="17.5" stroke="#F2C617"/>
<line x1="-2.18557e-08" y1="12.5" x2="29" y2="12.5" stroke="#F2C617"/>
<line x1="-2.18557e-08" y1="7.5" x2="29" y2="7.5" stroke="#F2C617"/>
<line x1="-2.18557e-08" y1="2.5" x2="29" y2="2.5" stroke="#F2C617"/>
</svg>
